<svg xmlns="http://www.w3.org/2000/svg" width="389" height="91" viewBox="0 0 389 91" version="1.1"><path d="M 279.789 35.741 C 283.248 35.937, 288.648 35.936, 291.789 35.738 L 297.500 35.378 285.500 35.382 L 273.500 35.385 279.789 35.741" stroke="none" fill="#71d3ed" fill-rule="evenodd"/><path d="" stroke="none" fill="#57cde9" fill-rule="evenodd"/><path d="" stroke="none" fill="#6dd5e8" fill-rule="evenodd"/><path d="" stroke="none" fill="#6ad1e4" fill-rule="evenodd"/><path d="" stroke="none" fill="#70d6f5" fill-rule="evenodd"/><path d="" stroke="none" fill="#62cfe7" fill-rule="evenodd"/><path d="" stroke="none" fill="#57cde7" fill-rule="evenodd"/><path d="M 334.706 29.016 L 332.143 31.033 323.571 47.621 C 313.534 67.045, 314.101 65.002, 318.750 64.990 L 322.500 64.980 330.406 49.740 C 334.755 41.358, 338.784 34.192, 339.361 33.815 L 340.409 33.129 341.795 33.905 L 343.180 34.680 350.974 49.590 L 358.767 64.500 362.384 64.810 L 366 65.121 366 64.276 C 366 63.812, 362.186 56.022, 357.525 46.966 L 349.051 30.500 346.915 28.750 L 344.778 27 341.024 27 L 337.270 27 334.706 29.016" stroke="none" fill="#4acbe9" fill-rule="evenodd"/><path d="" stroke="none" fill="#5dcde3" fill-rule="evenodd"/><path d="" stroke="none" fill="#55cce9" fill-rule="evenodd"/><path d="" stroke="none" fill="#4ccae6" fill-rule="evenodd"/><path d="M 334.706 29.016 L 332.143 31.033 323.571 47.621 C 313.534 67.045, 314.101 65.002, 318.750 64.990 L 322.500 64.980 330.406 49.740 C 334.755 41.358, 338.784 34.192, 339.361 33.815 L 340.409 33.129 341.795 33.905 L 343.180 34.680 350.974 49.590 L 358.767 64.500 362.384 64.810 L 366 65.121 366 64.276 C 366 63.812, 362.186 56.022, 357.525 46.966 L 349.051 30.500 346.915 28.750 L 344.778 27 341.024 27 L 337.270 27 334.706 29.016" stroke="none" fill="#4acbe9" fill-rule="evenodd"/><path d="M 334.706 29.016 L 332.143 31.033 323.571 47.621 C 313.534 67.045, 314.101 65.002, 318.750 64.990 L 322.500 64.980 330.406 49.740 C 334.755 41.358, 338.784 34.192, 339.361 33.815 L 340.409 33.129 341.795 33.905 L 343.180 34.680 350.974 49.590 L 358.767 64.500 362.384 64.810 L 366 65.121 366 64.276 C 366 63.812, 362.186 56.022, 357.525 46.966 L 349.051 30.500 346.915 28.750 L 344.778 27 341.024 27 L 337.270 27 334.706 29.016" stroke="none" fill="#4acbe9" fill-rule="evenodd"/><path d="" stroke="none" fill="#4ebfd8" fill-rule="evenodd"/><path d="" stroke="none" fill="#52c1db" fill-rule="evenodd"/><path d="" stroke="none" fill="#5ac5dc" fill-rule="evenodd"/><path d="M 251.413 46.500 L 251.415 64.500 251.746 55.199 C 251.928 50.084, 251.927 41.984, 251.744 37.199 L 251.411 28.500 251.413 46.500" stroke="none" fill="#4fbcd7" fill-rule="evenodd"/><path d="" stroke="none" fill="#46bcd9" fill-rule="evenodd"/><path d="" stroke="none" fill="#56c0db" fill-rule="evenodd"/><path d="" stroke="none" fill="#56c0db" fill-rule="evenodd"/><path d="M 269.256 29.645 L 266.012 31.244 264.006 34.490 L 262 37.736 262 46.791 L 262 55.847 264.703 59.059 L 267.407 62.272 270.671 63.636 C 272.467 64.386, 275.075 65, 276.468 65 L 279 65 279 61.500 L 279 58 276 58 L 273 58 271.072 56.072 L 269.144 54.144 268.444 49.473 L 267.743 44.801 268.907 40.917 L 270.071 37.033 271.970 36.016 L 273.869 35 286.362 35 L 298.855 35 300.927 37.635 L 303 40.270 303 46.500 L 303 52.730 300.927 55.365 L 298.855 58 295.427 58 L 292 58 292 53.500 L 292 49 288.500 49 L 285 49 285 57 L 285 65 291.750 64.998 L 298.500 64.997 302 63.248 L 305.500 61.500 307.750 57.038 L 310 52.576 309.998 46.038 L 309.997 39.500 308.248 36.020 L 306.500 32.540 303.102 30.270 L 299.704 28 286.102 28.023 L 272.500 28.046 269.256 29.645" stroke="none" fill="#42bedb" fill-rule="evenodd"/><path d="M 243.196 46.191 L 243 64.882 243.750 65.348 L 244.500 65.814 244.240 53.157 C 243.759 29.803, 243.393 27.360, 243.196 46.191" stroke="none" fill="#6fc8dd" fill-rule="evenodd"/><path d="M 269.256 29.645 L 266.012 31.244 264.006 34.490 L 262 37.736 262 46.791 L 262 55.847 264.703 59.059 L 267.407 62.272 270.671 63.636 C 272.467 64.386, 275.075 65, 276.468 65 L 279 65 279 61.500 L 279 58 276 58 L 273 58 271.072 56.072 L 269.144 54.144 268.444 49.473 L 267.743 44.801 268.907 40.917 L 270.071 37.033 271.970 36.016 L 273.869 35 286.362 35 L 298.855 35 300.927 37.635 L 303 40.270 303 46.500 L 303 52.730 300.927 55.365 L 298.855 58 295.427 58 L 292 58 292 53.500 L 292 49 288.500 49 L 285 49 285 57 L 285 65 291.750 64.998 L 298.500 64.997 302 63.248 L 305.500 61.500 307.750 57.038 L 310 52.576 309.998 46.038 L 309.997 39.500 308.248 36.020 L 306.500 32.540 303.102 30.270 L 299.704 28 286.102 28.023 L 272.500 28.046 269.256 29.645" stroke="none" fill="#42bedb" fill-rule="evenodd"/><path d="" stroke="none" fill="#43bfdb" fill-rule="evenodd"/><path d="M 269.256 29.645 L 266.012 31.244 264.006 34.490 L 262 37.736 262 46.791 L 262 55.847 264.703 59.059 L 267.407 62.272 270.671 63.636 C 272.467 64.386, 275.075 65, 276.468 65 L 279 65 279 61.500 L 279 58 276 58 L 273 58 271.072 56.072 L 269.144 54.144 268.444 49.473 L 267.743 44.801 268.907 40.917 L 270.071 37.033 271.970 36.016 L 273.869 35 286.362 35 L 298.855 35 300.927 37.635 L 303 40.270 303 46.500 L 303 52.730 300.927 55.365 L 298.855 58 295.427 58 L 292 58 292 53.500 L 292 49 288.500 49 L 285 49 285 57 L 285 65 291.750 64.998 L 298.500 64.997 302 63.248 L 305.500 61.500 307.750 57.038 L 310 52.576 309.998 46.038 L 309.997 39.500 308.248 36.020 L 306.500 32.540 303.102 30.270 L 299.704 28 286.102 28.023 L 272.500 28.046 269.256 29.645" stroke="none" fill="#42bedb" fill-rule="evenodd"/><path d="" stroke="none" fill="#4cbfd8" fill-rule="evenodd"/><path d="" stroke="none" fill="#58bcd4" fill-rule="evenodd"/><path d="" stroke="none" fill="#44bcd8" fill-rule="evenodd"/><path d="" stroke="none" fill="#41bbd9" fill-rule="evenodd"/><path d="" stroke="none" fill="#42b8d7" fill-rule="evenodd"/><path d="M 244 46.500 L 244 65 247.500 65 L 251 65 251 46.500 L 251 28 247.500 28 L 244 28 244 46.500" stroke="none" fill="#3ebad8" fill-rule="evenodd"/><path d="M 189.381 31.500 L 189.500 35.500 198.750 35.788 L 208 36.075 208 50.479 L 208 64.882 208.750 65.347 L 209.500 65.813 209.201 50.407 L 208.902 35 199.511 35 L 190.121 35 189.691 31.250 L 189.262 27.500 189.381 31.500" stroke="none" fill="#3cafca" fill-rule="evenodd"/><path d="" stroke="none" fill="#3bb1ce" fill-rule="evenodd"/><path d="" stroke="none" fill="#3aaec8" fill-rule="evenodd"/><path d="" stroke="none" fill="#39aeca" fill-rule="evenodd"/><path d="" stroke="none" fill="#3aaec8" fill-rule="evenodd"/><path d="" stroke="none" fill="#3bb1ce" fill-rule="evenodd"/><path d="" stroke="none" fill="#3aaec8" fill-rule="evenodd"/><path d="" stroke="none" fill="#39aeca" fill-rule="evenodd"/><path d="" stroke="none" fill="#39aeca" fill-rule="evenodd"/><path d="M 190.685 27.648 C 190.308 28.025, 190 29.833, 190 31.667 L 190 35 199.500 35 L 209 35 209 50 L 209 65 213 65 L 217 65 217 50 L 217 35 226.560 35 L 236.121 35 235.810 31.250 L 235.500 27.500 213.435 27.231 L 191.371 26.963 190.685 27.648" stroke="none" fill="#38afcb" fill-rule="evenodd"/><path d="" stroke="none" fill="#3a9db3" fill-rule="evenodd"/><path d="M 174.400 43.500 L 174.402 58.500 174.744 50.704 C 174.932 46.417, 174.931 39.667, 174.742 35.704 L 174.397 28.500 174.400 43.500" stroke="none" fill="#3599b0" fill-rule="evenodd"/><path d="" stroke="none" fill="#379cb2" fill-rule="evenodd"/><path d="" stroke="none" fill="#4ca1b5" fill-rule="evenodd"/><path d="M 181.998 46.702 L 181.500 65.904 182.273 65.129 L 183.046 64.354 182.771 45.927 L 182.496 27.500 181.998 46.702 M 78.868 35.270 L 79.639 36.039 102.070 35.768 L 124.500 35.497 101.298 34.998 L 78.097 34.500 78.868 35.270" stroke="none" fill="#84b9c5" fill-rule="evenodd"/><path d="M 94.296 50.744 C 98.583 50.932, 105.333 50.931, 109.296 50.742 L 116.500 50.397 101.500 50.400 L 86.500 50.402 94.296 50.744 M 95.750 57.745 C 100.837 57.927, 109.162 57.927, 114.250 57.745 L 123.500 57.415 105 57.415 L 86.500 57.415 95.750 57.745" stroke="none" fill="#65a5b4" fill-rule="evenodd"/><path d="" stroke="none" fill="#5aa0b0" fill-rule="evenodd"/><path d="M 91.304 65.747 C 97.247 65.924, 106.697 65.923, 112.304 65.745 L 122.500 65.422 101.500 65.423 L 80.500 65.425 91.304 65.747" stroke="none" fill="#619eaf" fill-rule="evenodd"/><path d="" stroke="none" fill="#569dae" fill-rule="evenodd"/><path d="" stroke="none" fill="#3b9bb3" fill-rule="evenodd"/><path d="M 133.227 46.250 L 133.500 64.500 137 64.500 L 140.500 64.500 140.776 49.250 L 141.052 34 141.776 34.004 C 142.174 34.006, 143.907 34.865, 145.627 35.914 L 148.754 37.821 154.627 46.655 C 161.758 57.381, 165.407 61.642, 169.099 63.551 L 171.901 65 176.950 65 L 182 65 182 46.500 L 182 28 178.526 28 L 175.052 28 174.776 43.168 L 174.500 58.336 173.370 58.711 L 172.240 59.087 169.237 56.083 C 167.584 54.431, 164.099 49.799, 161.492 45.789 C 156.059 37.437, 150.701 31.465, 146.800 29.418 L 144.099 28 138.527 28 L 132.955 28 133.227 46.250" stroke="none" fill="#339cb4" fill-rule="evenodd"/><path d="M 21 28.815 C 21 29.263, 24.557 36.575, 28.904 45.065 L 36.808 60.500 39.467 63.250 L 42.126 66 46.007 66 L 49.888 66 52.327 63.750 L 54.766 61.500 63.420 44.750 L 72.075 28 68.087 28 L 64.099 28 56.300 43.250 L 48.500 58.500 46.143 58.500 L 43.787 58.500 35.807 43.250 L 27.827 28 24.413 28 L 21 28 21 28.815 M 79.187 31.250 L 79.500 34.500 101.500 34.500 L 123.500 34.500 123.813 31.250 L 124.127 28 101.500 28 L 78.873 28 79.187 31.250 M 79 54 L 79 65 101.500 65 L 124 65 124 61.500 L 124 58 105 58 L 86 58 86 54 L 86 50 101 50 L 116 50 116 46.500 L 116 43 97.500 43 L 79 43 79 54" stroke="none" fill="#2d8499" fill-rule="evenodd"/><path d="" stroke="none" fill="#358596" fill-rule="evenodd"/><path d="" stroke="none" fill="#2e7f92" fill-rule="evenodd"/><path d="M 90.195 27.746 C 96.077 27.922, 105.977 27.923, 112.195 27.747 L 123.500 27.428 101.500 27.426 L 79.500 27.425 90.195 27.746" stroke="none" fill="#338090" fill-rule="evenodd"/><path d="" stroke="none" fill="#2d8296" fill-rule="evenodd"/><path d="" stroke="none" fill="#2e8194" fill-rule="evenodd"/><path d="M 88.199 42.744 C 92.984 42.927, 101.084 42.928, 106.199 42.746 L 115.500 42.415 97.500 42.413 L 79.500 42.411 88.199 42.744" stroke="none" fill="#448999" fill-rule="evenodd"/><path d="M 21 28.815 C 21 29.263, 24.557 36.575, 28.904 45.065 L 36.808 60.500 39.467 63.250 L 42.126 66 46.007 66 L 49.888 66 52.327 63.750 L 54.766 61.500 63.420 44.750 L 72.075 28 68.087 28 L 64.099 28 56.300 43.250 L 48.500 58.500 46.143 58.500 L 43.787 58.500 35.807 43.250 L 27.827 28 24.413 28 L 21 28 21 28.815 M 79.187 31.250 L 79.500 34.500 101.500 34.500 L 123.500 34.500 123.813 31.250 L 124.127 28 101.500 28 L 78.873 28 79.187 31.250 M 79 54 L 79 65 101.500 65 L 124 65 124 61.500 L 124 58 105 58 L 86 58 86 54 L 86 50 101 50 L 116 50 116 46.500 L 116 43 97.500 43 L 79 43 79 54" stroke="none" fill="#2d8499" fill-rule="evenodd"/></svg>